# xmcd CD database file
#
# Track frame offsets:
#	150
#	14985
#	28860
#	43672
#	56585
#	70583
#	82229
#	95895
#	107942
#	134350
#	147642
#	161378
#	175093
#
# Disc length: 2530 seconds
#
# Revision: 0
# Processed by: cddbd v1.5.2PL0 Copyright (c) Steve Scherf et al.
# Submitted via: CDex 1.51
#
DISCID=c309e00d
DTITLE=Various Artist - More Jazz!
DYEAR=1900
DGENRE=Jazz
TTITLE0=It don't mean a thing
TTITLE1=my funny valentine
TTITLE2=sophisticated lady
TTITLE3=stompin' at the savoy
TTITLE4=the man i love
TTITLE5=milestones
TTITLE6=i got rhythm
TTITLE7=jive at five
TTITLE8=godchild
TTITLE9=jump for joy
TTITLE10=basin street blues
TTITLE11=sweet georgia brown
TTITLE12=stardust
EXTD=
EXTT0=
EXTT1=
EXTT2=
EXTT3=
EXTT4=
EXTT5=
EXTT6=
EXTT7=
EXTT8=
EXTT9=
EXTT10=
EXTT11=
EXTT12=
PLAYORDER=
